<svg width="1160" height="324" viewBox="0 0 1160 324" fill="none" xmlns="http://www.w3.org/2000/svg">
<path d="M781.54 222.044V212.418H790.235V219.405L797.222 226.237H827.033L834.021 219.405V205.741L827.033 198.754H793.651L782.161 187.264V168.632L794.272 156.676H829.207L841.163 168.632V178.259H832.468V171.272L825.481 164.284H797.998L790.856 171.272V184.314L797.998 191.301H830.605L842.716 203.412V221.889L830.605 234H793.495L781.54 222.044ZM870.649 220.492V164.284H856.675V156.676H870.96V131.523H879.344V156.676H903.566V164.44H879.344V217.697L887.884 226.237H903.566V234H884.158L870.649 220.492ZM919.122 220.492V170.185L932.631 156.676H971.137L984.646 170.185V220.492L971.137 234H932.631L919.122 220.492ZM967.411 226.081L975.951 217.697V172.824L967.411 164.44H936.357L927.817 172.824V217.697L936.357 226.081H967.411ZM1007.86 156.676H1016.4V171.116L1031 156.676H1050.09V164.44H1033.48L1016.56 181.209V234H1007.86V156.676ZM1060.9 220.492V170.185L1074.4 156.676H1112.13L1125.8 170.185V197.667H1069.59V217.542L1078.29 226.081H1108.25L1116.95 217.697V210.865H1125.64V220.336L1111.98 234H1074.4L1060.9 220.492ZM1117.1 190.059V172.979L1108.56 164.44H1078.13L1069.59 172.979V190.059H1117.1Z" fill="white"/>
<path d="M43.4345 262.91V159.589C43.4345 150.704 51.0026 140.833 57.2545 134.581L52.6478 129.974C46.3959 136.226 35.5373 142.807 26.653 142.807C8.88432 142.478 0 133.265 0 115.496C0 97.3984 9.21337 88.5142 27.3111 88.5142H39.4859C52.3188 88.5142 58.8997 94.108 66.4679 110.56C69.7584 117.47 74.365 123.722 80.946 128C96.7404 138.201 102.663 145.769 102.663 156.298V248.761C102.663 261.594 105.954 265.213 118.787 265.542C137.213 265.871 146.098 274.427 146.098 292.524C146.098 310.622 136.884 319.835 118.787 319.835H97.7275C60.874 319.835 43.4345 301.738 43.4345 262.91Z" fill="white"/>
<path d="M269.614 224.411C269.614 206.314 278.499 197.429 296.596 197.429H370.961C380.833 197.429 390.704 196.442 390.704 179.332V160.247C390.704 151.362 396.956 143.465 403.537 137.213L398.931 132.607C392.35 138.859 383.794 143.794 374.91 143.794H253.491C240.987 143.794 235.064 149.717 235.064 162.221V293.512C235.064 313.255 225.193 323.126 205.45 323.126C185.707 323.126 175.835 313.255 175.835 293.512V134.91C175.835 106.283 192.946 89.5013 225.193 89.5013H376.884C390.046 89.5013 396.298 94.437 407.486 113.193C412.093 120.761 418.674 126.355 426.9 129.974C444.997 138.201 450.591 145.44 450.591 159.26V194.797C450.591 233.625 433.481 251.722 396.627 251.722H296.925C278.828 251.722 269.614 242.509 269.614 224.411Z" fill="white"/>
<path d="M650.679 51.0026C645.743 48.3702 642.123 47.054 638.175 47.054C634.226 47.054 630.607 48.3702 625.671 51.0026L597.702 65.1517C594.411 66.7969 590.792 67.7841 587.501 67.7841C583.553 67.7841 579.604 66.4679 576.972 62.8483C571.707 56.2673 573.023 47.054 579.275 42.1183L628.961 2.96144C631.594 0.987153 634.884 0 638.175 0C641.465 0 645.085 0.987153 647.388 2.96144L696.087 42.1183C702.668 47.383 703.656 56.5964 698.391 62.8483C695.429 66.4679 691.81 67.7841 687.861 67.7841C684.571 67.7841 680.951 66.7969 677.661 65.1517L650.679 51.0026ZM490.103 250.077V146.427C490.103 107.599 507.213 89.5013 544.067 89.5013H727.018C745.116 89.5013 754 98.3856 754 116.483C754 134.581 745.116 143.794 727.018 143.794H571.378C558.216 143.794 549.332 146.427 549.332 167.815V245.799C549.332 254.684 544.396 263.239 538.144 269.491L542.751 274.098C549.003 267.846 556.9 262.252 565.784 262.252H722.411C741.825 262.252 751.368 271.465 751.368 290.879C751.368 310.293 741.825 319.835 722.411 319.835H563.81C550.648 319.835 544.396 314.9 533.208 296.144C528.602 288.576 522.35 282.982 514.123 279.362C496.026 271.136 490.103 263.897 490.103 250.077ZM690.823 227.373H607.573C589.476 227.373 580.262 219.476 580.262 203.681C580.262 187.887 589.476 180.319 607.573 180.319H690.823C708.92 180.319 718.134 187.887 718.134 203.681C718.134 219.476 708.92 227.373 690.823 227.373Z" fill="white"/>
</svg>
