<svg width="1599" height="500" viewBox="0 0 1599 500" fill="none" xmlns="http://www.w3.org/2000/svg">
<path d="M67.2067 406.823V246.945C67.2067 233.198 78.917 217.923 88.5906 208.248L81.4627 201.12C71.789 210.794 54.9873 220.978 41.2405 220.978C13.7468 220.468 0 206.212 0 178.717C0 150.713 14.256 136.965 42.2588 136.965H61.097C80.9535 136.965 91.1364 145.621 102.847 171.079C107.938 181.772 115.066 191.446 125.249 198.065C149.688 213.849 158.852 225.56 158.852 241.853V384.929C158.852 404.786 163.944 410.387 183.8 410.896C212.312 411.405 226.059 424.644 226.059 452.648C226.059 480.652 211.803 494.908 183.8 494.908H151.215C94.1912 494.908 67.2067 466.904 67.2067 406.823Z" fill="#EFF2F1"/>
<path d="M417.178 347.251C417.178 319.246 430.925 305.499 458.928 305.499H573.994C589.268 305.499 604.542 303.971 604.542 277.495V247.963C604.542 234.216 614.216 221.996 624.399 212.322L617.271 205.194C607.088 214.868 593.85 222.505 580.103 222.505H392.23C372.883 222.505 363.718 231.67 363.718 251.018V454.175C363.718 484.725 348.444 500 317.895 500C287.347 500 272.073 484.725 272.073 454.175V208.758C272.073 164.46 298.548 138.493 348.444 138.493H583.158C603.524 138.493 613.197 146.13 630.508 175.153C637.636 186.864 647.819 195.519 660.548 201.12C688.55 213.849 697.206 225.051 697.206 246.436V301.426C697.206 361.507 670.73 389.511 613.707 389.511H459.437C431.434 389.511 417.178 375.255 417.178 347.251Z" fill="#EFF2F1"/>
<path d="M1006.8 78.9206C999.167 74.8473 993.566 72.8106 987.456 72.8106C981.347 72.8106 975.746 74.8473 968.109 78.9206L924.832 100.815C919.741 103.36 914.14 104.888 909.048 104.888C902.939 104.888 896.829 102.851 892.756 97.2505C884.61 87.0672 886.646 72.8106 896.32 65.1731L973.2 4.58249C977.273 1.52751 982.365 0 987.456 0C992.548 0 998.148 1.52751 1001.71 4.58249L1077.07 65.1731C1087.25 73.3197 1088.78 87.5764 1080.63 97.2505C1076.05 102.851 1070.45 104.888 1064.34 104.888C1059.25 104.888 1053.64 103.36 1048.55 100.815L1006.8 78.9206ZM758.343 386.965V226.578C758.343 166.497 784.818 138.493 841.842 138.493H1124.92C1152.93 138.493 1166.67 152.24 1166.67 180.244C1166.67 208.248 1152.93 222.505 1124.92 222.505H884.101C863.735 222.505 849.988 226.578 849.988 259.674V380.346C849.988 394.094 842.351 407.332 832.677 417.006L839.805 424.134C849.479 414.46 861.698 405.805 875.445 405.805H1117.8C1147.84 405.805 1162.6 420.061 1162.6 450.102C1162.6 480.143 1147.84 494.908 1117.8 494.908H872.39C852.025 494.908 842.351 487.271 825.04 458.248C817.912 446.538 808.238 437.882 795.51 432.281C767.507 419.552 758.343 408.35 758.343 386.965ZM1068.92 351.833H940.106C912.103 351.833 897.847 339.613 897.847 315.173C897.847 290.733 912.103 279.022 940.106 279.022H1068.92C1096.92 279.022 1111.18 290.733 1111.18 315.173C1111.18 339.613 1096.92 351.833 1068.92 351.833Z" fill="#EFF2F1"/>
<path d="M1229.67 350.35V273.178L1250.4 252.456H1305.65L1326.37 273.178V285.325H1313.04V277.227L1299.94 264.365H1256.11L1243.01 277.465V346.063L1256.11 358.925H1299.94L1313.04 346.063V338.203H1326.37V350.35L1305.65 371.072H1250.4L1229.67 350.35Z" fill="#EFF2F1"/>
<path d="M1356.23 224.588V215.537L1362.19 209.582H1370.76L1376.72 215.537V224.588L1370.76 230.543H1362.19L1356.23 224.588ZM1359.81 252.456H1373.14V371.072H1359.81V252.456Z" fill="#EFF2F1"/>
<path d="M1424.43 350.35V264.127H1402.99V252.456H1424.91V213.87H1437.77V252.456H1474.92V264.365H1437.77V346.063L1450.87 359.163H1474.92V371.072H1445.15L1424.43 350.35Z" fill="#EFF2F1"/>
<path d="M1599 252.456V402.275L1578.28 422.759H1522.78L1505.87 406.086V392.509H1519.21V401.798L1528.5 410.849H1572.56L1585.66 397.987V342.966L1557.56 371.072H1523.02L1502.3 350.35V252.456H1515.64V346.063L1528.74 358.925H1553.75L1585.66 326.77V252.456H1599Z" fill="#EFF2F1"/>
</svg>
